<mxfile host="app.diagrams.net" modified="2021-01-15T09:03:33.452Z" agent="5.0 (Macintosh; Intel Mac OS X 10_15_7) AppleWebKit/537.36 (KHTML, like Gecko) Chrome/87.0.4280.88 Safari/537.36" etag="VlB2O8YgFcO3LtYZZufT" version="14.1.9" type="github">
  <diagram id="ZyPiB3q320GPObTzvzhp" name="Page-1">
    <mxGraphModel dx="1298" dy="2488" grid="0" gridSize="10" guides="1" tooltips="1" connect="1" arrows="1" fold="1" page="1" pageScale="1" pageWidth="1169" pageHeight="1654" math="0" shadow="0">
      <root>
        <mxCell id="0" />
        <mxCell id="1" parent="0" />
        <mxCell id="Cu7uc8yZki1-YXtwR6dr-38" value="" style="rounded=1;whiteSpace=wrap;html=1;fillColor=#002C53;strokeColor=#FFFFFF;" vertex="1" parent="1">
          <mxGeometry x="397" y="-1115" width="220" height="1090" as="geometry" />
        </mxCell>
        <mxCell id="Cu7uc8yZki1-YXtwR6dr-37" value="" style="rounded=1;whiteSpace=wrap;html=1;fillColor=#002C53;strokeColor=#FFFFFF;" vertex="1" parent="1">
          <mxGeometry x="97" y="-1115" width="220" height="1090" as="geometry" />
        </mxCell>
        <mxCell id="Cu7uc8yZki1-YXtwR6dr-1" value="选择应用" style="rounded=1;whiteSpace=wrap;html=1;fontColor=#FFFFFF;fillColor=#0c8ed6;" vertex="1" parent="1">
          <mxGeometry x="127.75" y="-1095" width="158.5" height="40" as="geometry" />
        </mxCell>
        <mxCell id="Cu7uc8yZki1-YXtwR6dr-2" value="选择变更" style="rounded=1;whiteSpace=wrap;html=1;fontColor=#FFFFFF;fillColor=#0c8ed6;" vertex="1" parent="1">
          <mxGeometry x="127.75" y="-1035" width="158.5" height="40" as="geometry" />
        </mxCell>
        <mxCell id="Cu7uc8yZki1-YXtwR6dr-4" value="发布变更" style="rounded=1;whiteSpace=wrap;html=1;fontColor=#FFFFFF;fillColor=#0c8ed6;" vertex="1" parent="1">
          <mxGeometry x="127.75" y="-975" width="158.5" height="40" as="geometry" />
        </mxCell>
        <mxCell id="Cu7uc8yZki1-YXtwR6dr-5" value="创建发布分支&lt;br&gt;release/timespan_random" style="rounded=1;whiteSpace=wrap;html=1;fontColor=#FFFFFF;fillColor=#0c8ed6;" vertex="1" parent="1">
          <mxGeometry x="127.75" y="-915" width="158.5" height="40" as="geometry" />
        </mxCell>
        <mxCell id="Cu7uc8yZki1-YXtwR6dr-6" value="获取应用信息" style="rounded=1;whiteSpace=wrap;html=1;fontColor=#FFFFFF;fillColor=#0c8ed6;" vertex="1" parent="1">
          <mxGeometry x="427" y="-1095" width="158.5" height="40" as="geometry" />
        </mxCell>
        <mxCell id="Cu7uc8yZki1-YXtwR6dr-7" value="校验权限？" style="rounded=1;whiteSpace=wrap;html=1;fontColor=#FFFFFF;fillColor=#0c8ed6;" vertex="1" parent="1">
          <mxGeometry x="427" y="-1035" width="158.5" height="40" as="geometry" />
        </mxCell>
        <mxCell id="Cu7uc8yZki1-YXtwR6dr-8" value="拉取代码" style="rounded=1;whiteSpace=wrap;html=1;fontColor=#FFFFFF;fillColor=#0c8ed6;" vertex="1" parent="1">
          <mxGeometry x="427" y="-975" width="158.5" height="40" as="geometry" />
        </mxCell>
        <mxCell id="Cu7uc8yZki1-YXtwR6dr-9" value="代码扫描" style="rounded=1;whiteSpace=wrap;html=1;fontColor=#FFFFFF;fillColor=#0c8ed6;" vertex="1" parent="1">
          <mxGeometry x="427" y="-915" width="158.5" height="40" as="geometry" />
        </mxCell>
        <mxCell id="Cu7uc8yZki1-YXtwR6dr-10" value="单元测试" style="rounded=1;whiteSpace=wrap;html=1;fontColor=#FFFFFF;fillColor=#0c8ed6;" vertex="1" parent="1">
          <mxGeometry x="427" y="-855" width="158.5" height="40" as="geometry" />
        </mxCell>
        <mxCell id="Cu7uc8yZki1-YXtwR6dr-11" value="e2e测试" style="rounded=1;whiteSpace=wrap;html=1;fontColor=#FFFFFF;fillColor=#0c8ed6;" vertex="1" parent="1">
          <mxGeometry x="427.75" y="-795" width="158.5" height="40" as="geometry" />
        </mxCell>
        <mxCell id="Cu7uc8yZki1-YXtwR6dr-12" value="&lt;span style=&quot;color: rgba(0 , 0 , 0 , 0) ; font-family: monospace ; font-size: 0px&quot;&gt;%3CmxGraphModel%3E%3Croot%3E%3CmxCell%20id%3D%220%22%2F%3E%3CmxCell%20id%3D%221%22%20parent%3D%220%22%2F%3E%3CmxCell%20id%3D%222%22%20value%3D%22e2e%E6%B5%8B%E8%AF%95%22%20style%3D%22rounded%3D1%3BwhiteSpace%3Dwrap%3Bhtml%3D1%3B%22%20vertex%3D%221%22%20parent%3D%221%22%3E%3CmxGeometry%20x%3D%22490%22%20y%3D%22-410%22%20width%3D%22120%22%20height%3D%2240%22%20as%3D%22geometry%22%2F%3E%3C%2FmxCell%3E%3C%2Froot%3E%3C%2FmxGraphModel%3E&lt;/span&gt;构建" style="rounded=1;whiteSpace=wrap;html=1;fontColor=#FFFFFF;fillColor=#0c8ed6;" vertex="1" parent="1">
          <mxGeometry x="427.75" y="-734" width="158.5" height="40" as="geometry" />
        </mxCell>
        <mxCell id="Cu7uc8yZki1-YXtwR6dr-13" value="日志输出" style="rounded=1;whiteSpace=wrap;html=1;fontColor=#FFFFFF;fillColor=#0c8ed6;" vertex="1" parent="1">
          <mxGeometry x="427" y="-675" width="158.5" height="40" as="geometry" />
        </mxCell>
        <mxCell id="Cu7uc8yZki1-YXtwR6dr-14" value="显示日志" style="rounded=1;whiteSpace=wrap;html=1;fontColor=#FFFFFF;fillColor=#0c8ed6;" vertex="1" parent="1">
          <mxGeometry x="127.75" y="-675" width="158.5" height="40" as="geometry" />
        </mxCell>
        <mxCell id="Cu7uc8yZki1-YXtwR6dr-55" value="" style="edgeStyle=orthogonalEdgeStyle;rounded=1;orthogonalLoop=1;jettySize=auto;html=1;entryX=1;entryY=0.5;entryDx=0;entryDy=0;strokeColor=#ffae11;" edge="1" parent="1" source="Cu7uc8yZki1-YXtwR6dr-15" target="Cu7uc8yZki1-YXtwR6dr-17">
          <mxGeometry relative="1" as="geometry" />
        </mxCell>
        <mxCell id="Cu7uc8yZki1-YXtwR6dr-15" value="发布预发环境" style="rounded=1;whiteSpace=wrap;html=1;fontColor=#FFFFFF;fillColor=#0c8ed6;" vertex="1" parent="1">
          <mxGeometry x="427" y="-615" width="158.5" height="40" as="geometry" />
        </mxCell>
        <mxCell id="Cu7uc8yZki1-YXtwR6dr-17" value="手动确认通过" style="rounded=1;whiteSpace=wrap;html=1;fontColor=#FFFFFF;fillColor=#0c8ed6;" vertex="1" parent="1">
          <mxGeometry x="127.75" y="-615" width="158.5" height="40" as="geometry" />
        </mxCell>
        <mxCell id="Cu7uc8yZki1-YXtwR6dr-19" value="检查上线前checklist" style="rounded=1;whiteSpace=wrap;html=1;fontColor=#FFFFFF;fillColor=#0c8ed6;" vertex="1" parent="1">
          <mxGeometry x="127.75" y="-555.5" width="158.5" height="40" as="geometry" />
        </mxCell>
        <mxCell id="Cu7uc8yZki1-YXtwR6dr-20" value="获取应用信息" style="rounded=1;whiteSpace=wrap;html=1;fontColor=#FFFFFF;fillColor=#0c8ed6;" vertex="1" parent="1">
          <mxGeometry x="427" y="-555.5" width="158.5" height="40" as="geometry" />
        </mxCell>
        <mxCell id="Cu7uc8yZki1-YXtwR6dr-21" value="拉取代码" style="rounded=1;whiteSpace=wrap;html=1;fontColor=#FFFFFF;fillColor=#0c8ed6;" vertex="1" parent="1">
          <mxGeometry x="427" y="-495" width="158.5" height="40" as="geometry" />
        </mxCell>
        <mxCell id="Cu7uc8yZki1-YXtwR6dr-22" value="构建" style="rounded=1;whiteSpace=wrap;html=1;fontColor=#FFFFFF;fillColor=#0c8ed6;" vertex="1" parent="1">
          <mxGeometry x="427" y="-435" width="158.5" height="40" as="geometry" />
        </mxCell>
        <mxCell id="Cu7uc8yZki1-YXtwR6dr-23" value="根据测试环境变量" style="shape=document;whiteSpace=wrap;html=1;boundedLbl=1;fillColor=#46c4b9;fontColor=#FFFFFF;" vertex="1" parent="1">
          <mxGeometry x="650" y="-729" width="120" height="30" as="geometry" />
        </mxCell>
        <mxCell id="Cu7uc8yZki1-YXtwR6dr-24" value="根据生产环境变量" style="shape=document;whiteSpace=wrap;html=1;boundedLbl=1;fillColor=#46c4b9;fontColor=#FFFFFF;" vertex="1" parent="1">
          <mxGeometry x="650" y="-430" width="120" height="30" as="geometry" />
        </mxCell>
        <mxCell id="Cu7uc8yZki1-YXtwR6dr-25" value="发到正式环境" style="rounded=1;whiteSpace=wrap;html=1;fontColor=#FFFFFF;fillColor=#0c8ed6;" vertex="1" parent="1">
          <mxGeometry x="427" y="-374" width="158.5" height="40" as="geometry" />
        </mxCell>
        <mxCell id="Cu7uc8yZki1-YXtwR6dr-27" value="OSS&lt;br&gt;&lt;br&gt;CDN" style="shape=cylinder3;whiteSpace=wrap;html=1;boundedLbl=1;backgroundOutline=1;size=15;fillColor=#46c4b9;fontColor=#FFFFFF;" vertex="1" parent="1">
          <mxGeometry x="657" y="-394" width="60" height="80" as="geometry" />
        </mxCell>
        <mxCell id="Cu7uc8yZki1-YXtwR6dr-28" value="合并主干" style="rounded=1;whiteSpace=wrap;html=1;fontColor=#FFFFFF;fillColor=#0c8ed6;" vertex="1" parent="1">
          <mxGeometry x="427" y="-314" width="158.5" height="40" as="geometry" />
        </mxCell>
        <mxCell id="Cu7uc8yZki1-YXtwR6dr-29" value="release/timespan_random -&amp;gt; master" style="shape=document;whiteSpace=wrap;html=1;boundedLbl=1;fillColor=#46c4b9;fontColor=#FFFFFF;" vertex="1" parent="1">
          <mxGeometry x="650" y="-309" width="220" height="30" as="geometry" />
        </mxCell>
        <mxCell id="Cu7uc8yZki1-YXtwR6dr-30" value="保存发布记录" style="rounded=1;whiteSpace=wrap;html=1;fontColor=#FFFFFF;fillColor=#0c8ed6;" vertex="1" parent="1">
          <mxGeometry x="427.75" y="-255" width="158.5" height="40" as="geometry" />
        </mxCell>
        <mxCell id="Cu7uc8yZki1-YXtwR6dr-31" value="删除发布分支&lt;br&gt;release/timespan_random" style="rounded=1;whiteSpace=wrap;html=1;fontColor=#FFFFFF;fillColor=#0c8ed6;" vertex="1" parent="1">
          <mxGeometry x="427.75" y="-195" width="158.5" height="40" as="geometry" />
        </mxCell>
        <mxCell id="Cu7uc8yZki1-YXtwR6dr-33" value="删除变更" style="rounded=1;whiteSpace=wrap;html=1;fontColor=#FFFFFF;fillColor=#0c8ed6;" vertex="1" parent="1">
          <mxGeometry x="427" y="-135" width="158.5" height="40" as="geometry" />
        </mxCell>
        <mxCell id="Cu7uc8yZki1-YXtwR6dr-34" value="更新版本号&lt;br&gt;current / next" style="rounded=1;whiteSpace=wrap;html=1;fontColor=#FFFFFF;fillColor=#0c8ed6;" vertex="1" parent="1">
          <mxGeometry x="427" y="-75" width="158.5" height="40" as="geometry" />
        </mxCell>
        <mxCell id="Cu7uc8yZki1-YXtwR6dr-36" value="发布完成" style="rounded=1;whiteSpace=wrap;html=1;fontColor=#FFFFFF;fillColor=#0c8ed6;" vertex="1" parent="1">
          <mxGeometry x="127.75" y="-75" width="158.5" height="40" as="geometry" />
        </mxCell>
        <mxCell id="Cu7uc8yZki1-YXtwR6dr-40" value="" style="endArrow=classic;html=1;entryX=0.5;entryY=0;entryDx=0;entryDy=0;strokeColor=#FFFFFF;" edge="1" parent="1" source="Cu7uc8yZki1-YXtwR6dr-1" target="Cu7uc8yZki1-YXtwR6dr-2">
          <mxGeometry width="50" height="50" relative="1" as="geometry">
            <mxPoint x="207" y="-1005" as="sourcePoint" />
            <mxPoint x="207" y="-1045" as="targetPoint" />
          </mxGeometry>
        </mxCell>
        <mxCell id="Cu7uc8yZki1-YXtwR6dr-42" value="" style="endArrow=classic;html=1;exitX=0.5;exitY=1;exitDx=0;exitDy=0;entryX=0.5;entryY=0;entryDx=0;entryDy=0;strokeColor=#FFFFFF;" edge="1" parent="1" source="Cu7uc8yZki1-YXtwR6dr-2" target="Cu7uc8yZki1-YXtwR6dr-4">
          <mxGeometry width="50" height="50" relative="1" as="geometry">
            <mxPoint x="160" y="-735" as="sourcePoint" />
            <mxPoint x="210" y="-785" as="targetPoint" />
          </mxGeometry>
        </mxCell>
        <mxCell id="Cu7uc8yZki1-YXtwR6dr-43" value="" style="endArrow=classic;html=1;exitX=0.5;exitY=1;exitDx=0;exitDy=0;strokeColor=#FFFFFF;" edge="1" parent="1" source="Cu7uc8yZki1-YXtwR6dr-4">
          <mxGeometry width="50" height="50" relative="1" as="geometry">
            <mxPoint x="150" y="-715" as="sourcePoint" />
            <mxPoint x="207" y="-915" as="targetPoint" />
          </mxGeometry>
        </mxCell>
        <mxCell id="Cu7uc8yZki1-YXtwR6dr-44" value="" style="endArrow=classic;html=1;exitX=1;exitY=0.5;exitDx=0;exitDy=0;entryX=0;entryY=0.5;entryDx=0;entryDy=0;strokeColor=#ffae11;" edge="1" parent="1" source="Cu7uc8yZki1-YXtwR6dr-5" target="Cu7uc8yZki1-YXtwR6dr-6">
          <mxGeometry width="50" height="50" relative="1" as="geometry">
            <mxPoint x="220" y="-775" as="sourcePoint" />
            <mxPoint x="270" y="-825" as="targetPoint" />
            <Array as="points">
              <mxPoint x="360" y="-895" />
              <mxPoint x="360" y="-1075" />
            </Array>
          </mxGeometry>
        </mxCell>
        <mxCell id="Cu7uc8yZki1-YXtwR6dr-45" value="" style="endArrow=classic;html=1;exitX=0.5;exitY=1;exitDx=0;exitDy=0;entryX=0.5;entryY=0;entryDx=0;entryDy=0;strokeColor=#FFFFFF;" edge="1" parent="1" source="Cu7uc8yZki1-YXtwR6dr-6" target="Cu7uc8yZki1-YXtwR6dr-7">
          <mxGeometry width="50" height="50" relative="1" as="geometry">
            <mxPoint x="210" y="-775" as="sourcePoint" />
            <mxPoint x="260" y="-825" as="targetPoint" />
          </mxGeometry>
        </mxCell>
        <mxCell id="Cu7uc8yZki1-YXtwR6dr-46" value="" style="endArrow=classic;html=1;exitX=0.5;exitY=1;exitDx=0;exitDy=0;strokeColor=#FFFFFF;" edge="1" parent="1" source="Cu7uc8yZki1-YXtwR6dr-7" target="Cu7uc8yZki1-YXtwR6dr-8">
          <mxGeometry width="50" height="50" relative="1" as="geometry">
            <mxPoint x="210" y="-735" as="sourcePoint" />
            <mxPoint x="260" y="-785" as="targetPoint" />
          </mxGeometry>
        </mxCell>
        <mxCell id="Cu7uc8yZki1-YXtwR6dr-47" value="" style="endArrow=classic;html=1;exitX=0.5;exitY=1;exitDx=0;exitDy=0;entryX=0.5;entryY=0;entryDx=0;entryDy=0;strokeColor=#FFFFFF;" edge="1" parent="1" source="Cu7uc8yZki1-YXtwR6dr-8" target="Cu7uc8yZki1-YXtwR6dr-9">
          <mxGeometry width="50" height="50" relative="1" as="geometry">
            <mxPoint x="210" y="-735" as="sourcePoint" />
            <mxPoint x="260" y="-785" as="targetPoint" />
          </mxGeometry>
        </mxCell>
        <mxCell id="Cu7uc8yZki1-YXtwR6dr-48" value="" style="endArrow=classic;html=1;exitX=0.5;exitY=1;exitDx=0;exitDy=0;entryX=0.5;entryY=0;entryDx=0;entryDy=0;strokeColor=#FFFFFF;" edge="1" parent="1" source="Cu7uc8yZki1-YXtwR6dr-9" target="Cu7uc8yZki1-YXtwR6dr-10">
          <mxGeometry width="50" height="50" relative="1" as="geometry">
            <mxPoint x="720" y="-565" as="sourcePoint" />
            <mxPoint x="770" y="-615" as="targetPoint" />
          </mxGeometry>
        </mxCell>
        <mxCell id="Cu7uc8yZki1-YXtwR6dr-49" value="" style="endArrow=classic;html=1;exitX=0.5;exitY=1;exitDx=0;exitDy=0;entryX=0.5;entryY=0;entryDx=0;entryDy=0;strokeColor=#FFFFFF;" edge="1" parent="1" source="Cu7uc8yZki1-YXtwR6dr-10" target="Cu7uc8yZki1-YXtwR6dr-11">
          <mxGeometry width="50" height="50" relative="1" as="geometry">
            <mxPoint x="190" y="-755" as="sourcePoint" />
            <mxPoint x="240" y="-805" as="targetPoint" />
          </mxGeometry>
        </mxCell>
        <mxCell id="Cu7uc8yZki1-YXtwR6dr-50" value="" style="endArrow=classic;html=1;exitX=0.5;exitY=1;exitDx=0;exitDy=0;entryX=0.5;entryY=0;entryDx=0;entryDy=0;strokeColor=#FFFFFF;" edge="1" parent="1" source="Cu7uc8yZki1-YXtwR6dr-11" target="Cu7uc8yZki1-YXtwR6dr-12">
          <mxGeometry width="50" height="50" relative="1" as="geometry">
            <mxPoint x="240" y="-705" as="sourcePoint" />
            <mxPoint x="290" y="-755" as="targetPoint" />
          </mxGeometry>
        </mxCell>
        <mxCell id="Cu7uc8yZki1-YXtwR6dr-51" value="" style="endArrow=classic;html=1;exitX=0.5;exitY=1;exitDx=0;exitDy=0;entryX=0.5;entryY=0;entryDx=0;entryDy=0;strokeColor=#FFFFFF;" edge="1" parent="1" source="Cu7uc8yZki1-YXtwR6dr-12" target="Cu7uc8yZki1-YXtwR6dr-13">
          <mxGeometry width="50" height="50" relative="1" as="geometry">
            <mxPoint x="230" y="-735" as="sourcePoint" />
            <mxPoint x="280" y="-785" as="targetPoint" />
          </mxGeometry>
        </mxCell>
        <mxCell id="Cu7uc8yZki1-YXtwR6dr-52" value="" style="endArrow=classic;html=1;exitX=0.5;exitY=1;exitDx=0;exitDy=0;entryX=0.5;entryY=0;entryDx=0;entryDy=0;strokeColor=#FFFFFF;" edge="1" parent="1" source="Cu7uc8yZki1-YXtwR6dr-13" target="Cu7uc8yZki1-YXtwR6dr-15">
          <mxGeometry width="50" height="50" relative="1" as="geometry">
            <mxPoint x="220" y="-705" as="sourcePoint" />
            <mxPoint x="270" y="-755" as="targetPoint" />
          </mxGeometry>
        </mxCell>
        <mxCell id="Cu7uc8yZki1-YXtwR6dr-54" value="" style="endArrow=classic;html=1;exitX=0.5;exitY=1;exitDx=0;exitDy=0;entryX=0.5;entryY=0;entryDx=0;entryDy=0;strokeColor=#FFFFFF;" edge="1" parent="1" source="Cu7uc8yZki1-YXtwR6dr-20" target="Cu7uc8yZki1-YXtwR6dr-21">
          <mxGeometry width="50" height="50" relative="1" as="geometry">
            <mxPoint x="386" y="-499.5" as="sourcePoint" />
            <mxPoint x="150" y="-330.5" as="targetPoint" />
          </mxGeometry>
        </mxCell>
        <mxCell id="Cu7uc8yZki1-YXtwR6dr-56" value="" style="endArrow=classic;html=1;exitX=0;exitY=0.5;exitDx=0;exitDy=0;entryX=1;entryY=0.5;entryDx=0;entryDy=0;strokeColor=#ffae11;dashed=1;dashPattern=1 4;" edge="1" parent="1" source="Cu7uc8yZki1-YXtwR6dr-13" target="Cu7uc8yZki1-YXtwR6dr-14">
          <mxGeometry width="50" height="50" relative="1" as="geometry">
            <mxPoint x="110" y="-695" as="sourcePoint" />
            <mxPoint x="160" y="-745" as="targetPoint" />
          </mxGeometry>
        </mxCell>
        <mxCell id="Cu7uc8yZki1-YXtwR6dr-57" value="" style="endArrow=classic;html=1;exitX=0.5;exitY=1;exitDx=0;exitDy=0;entryX=0.5;entryY=0;entryDx=0;entryDy=0;strokeColor=#FFFFFF;" edge="1" parent="1" source="Cu7uc8yZki1-YXtwR6dr-17" target="Cu7uc8yZki1-YXtwR6dr-19">
          <mxGeometry width="50" height="50" relative="1" as="geometry">
            <mxPoint x="240" y="-345" as="sourcePoint" />
            <mxPoint x="290" y="-395" as="targetPoint" />
          </mxGeometry>
        </mxCell>
        <mxCell id="Cu7uc8yZki1-YXtwR6dr-58" value="" style="endArrow=classic;html=1;exitX=1;exitY=0.5;exitDx=0;exitDy=0;entryX=0;entryY=0.5;entryDx=0;entryDy=0;strokeColor=#ffae11;" edge="1" parent="1" source="Cu7uc8yZki1-YXtwR6dr-19" target="Cu7uc8yZki1-YXtwR6dr-20">
          <mxGeometry width="50" height="50" relative="1" as="geometry">
            <mxPoint x="190" y="-335" as="sourcePoint" />
            <mxPoint x="240" y="-385" as="targetPoint" />
          </mxGeometry>
        </mxCell>
        <mxCell id="Cu7uc8yZki1-YXtwR6dr-59" value="" style="endArrow=classic;html=1;exitX=0.5;exitY=1;exitDx=0;exitDy=0;strokeColor=#FFFFFF;" edge="1" parent="1" source="Cu7uc8yZki1-YXtwR6dr-21" target="Cu7uc8yZki1-YXtwR6dr-22">
          <mxGeometry width="50" height="50" relative="1" as="geometry">
            <mxPoint x="140" y="-325" as="sourcePoint" />
            <mxPoint x="190" y="-375" as="targetPoint" />
          </mxGeometry>
        </mxCell>
        <mxCell id="Cu7uc8yZki1-YXtwR6dr-60" value="" style="endArrow=classic;html=1;exitX=0.5;exitY=1;exitDx=0;exitDy=0;entryX=0.5;entryY=0;entryDx=0;entryDy=0;strokeColor=#FFFFFF;" edge="1" parent="1" source="Cu7uc8yZki1-YXtwR6dr-22" target="Cu7uc8yZki1-YXtwR6dr-25">
          <mxGeometry width="50" height="50" relative="1" as="geometry">
            <mxPoint x="180" y="-305" as="sourcePoint" />
            <mxPoint x="230" y="-355" as="targetPoint" />
          </mxGeometry>
        </mxCell>
        <mxCell id="Cu7uc8yZki1-YXtwR6dr-61" value="" style="endArrow=classic;html=1;exitX=0.5;exitY=1;exitDx=0;exitDy=0;entryX=0.5;entryY=0;entryDx=0;entryDy=0;strokeColor=#FFFFFF;" edge="1" parent="1" source="Cu7uc8yZki1-YXtwR6dr-25" target="Cu7uc8yZki1-YXtwR6dr-28">
          <mxGeometry width="50" height="50" relative="1" as="geometry">
            <mxPoint x="150" y="-245" as="sourcePoint" />
            <mxPoint x="200" y="-295" as="targetPoint" />
          </mxGeometry>
        </mxCell>
        <mxCell id="Cu7uc8yZki1-YXtwR6dr-62" value="" style="endArrow=classic;html=1;exitX=0.5;exitY=1;exitDx=0;exitDy=0;entryX=0.5;entryY=0;entryDx=0;entryDy=0;strokeColor=#FFFFFF;" edge="1" parent="1" source="Cu7uc8yZki1-YXtwR6dr-28" target="Cu7uc8yZki1-YXtwR6dr-30">
          <mxGeometry width="50" height="50" relative="1" as="geometry">
            <mxPoint x="160" y="-185" as="sourcePoint" />
            <mxPoint x="210" y="-235" as="targetPoint" />
          </mxGeometry>
        </mxCell>
        <mxCell id="Cu7uc8yZki1-YXtwR6dr-63" value="" style="endArrow=classic;html=1;exitX=0.5;exitY=1;exitDx=0;exitDy=0;entryX=0.5;entryY=0;entryDx=0;entryDy=0;strokeColor=#FFFFFF;" edge="1" parent="1" source="Cu7uc8yZki1-YXtwR6dr-30" target="Cu7uc8yZki1-YXtwR6dr-31">
          <mxGeometry width="50" height="50" relative="1" as="geometry">
            <mxPoint x="90" y="-175" as="sourcePoint" />
            <mxPoint x="140" y="-225" as="targetPoint" />
          </mxGeometry>
        </mxCell>
        <mxCell id="Cu7uc8yZki1-YXtwR6dr-64" value="" style="endArrow=classic;html=1;exitX=0.5;exitY=1;exitDx=0;exitDy=0;entryX=0.5;entryY=0;entryDx=0;entryDy=0;strokeColor=#FFFFFF;" edge="1" parent="1" source="Cu7uc8yZki1-YXtwR6dr-31" target="Cu7uc8yZki1-YXtwR6dr-33">
          <mxGeometry width="50" height="50" relative="1" as="geometry">
            <mxPoint x="760" y="-375" as="sourcePoint" />
            <mxPoint x="810" y="-425" as="targetPoint" />
          </mxGeometry>
        </mxCell>
        <mxCell id="Cu7uc8yZki1-YXtwR6dr-65" value="" style="endArrow=classic;html=1;exitX=0.5;exitY=1;exitDx=0;exitDy=0;entryX=0.5;entryY=0;entryDx=0;entryDy=0;strokeColor=#FFFFFF;" edge="1" parent="1" source="Cu7uc8yZki1-YXtwR6dr-33" target="Cu7uc8yZki1-YXtwR6dr-34">
          <mxGeometry width="50" height="50" relative="1" as="geometry">
            <mxPoint x="760" y="-255" as="sourcePoint" />
            <mxPoint x="810" y="-305" as="targetPoint" />
          </mxGeometry>
        </mxCell>
        <mxCell id="Cu7uc8yZki1-YXtwR6dr-68" value="" style="endArrow=classic;html=1;exitX=0;exitY=0.5;exitDx=0;exitDy=0;entryX=1;entryY=0.5;entryDx=0;entryDy=0;dashed=1;strokeColor=#ffc86c;" edge="1" parent="1" source="Cu7uc8yZki1-YXtwR6dr-23" target="Cu7uc8yZki1-YXtwR6dr-12">
          <mxGeometry width="50" height="50" relative="1" as="geometry">
            <mxPoint x="640" y="-535" as="sourcePoint" />
            <mxPoint x="690" y="-585" as="targetPoint" />
          </mxGeometry>
        </mxCell>
        <mxCell id="Cu7uc8yZki1-YXtwR6dr-69" value="" style="endArrow=classic;html=1;exitX=0;exitY=0.5;exitDx=0;exitDy=0;entryX=1;entryY=0.5;entryDx=0;entryDy=0;dashed=1;strokeColor=#ffc86c;" edge="1" parent="1">
          <mxGeometry width="50" height="50" relative="1" as="geometry">
            <mxPoint x="650" y="-415.7100000000002" as="sourcePoint" />
            <mxPoint x="586.25" y="-415.7100000000002" as="targetPoint" />
          </mxGeometry>
        </mxCell>
        <mxCell id="Cu7uc8yZki1-YXtwR6dr-70" value="" style="endArrow=classic;html=1;exitX=1;exitY=0.5;exitDx=0;exitDy=0;entryX=0;entryY=0.5;entryDx=0;entryDy=0;entryPerimeter=0;strokeColor=#ffc86c;" edge="1" parent="1" source="Cu7uc8yZki1-YXtwR6dr-25" target="Cu7uc8yZki1-YXtwR6dr-27">
          <mxGeometry width="50" height="50" relative="1" as="geometry">
            <mxPoint x="620" y="-335" as="sourcePoint" />
            <mxPoint x="670" y="-385" as="targetPoint" />
          </mxGeometry>
        </mxCell>
        <mxCell id="Cu7uc8yZki1-YXtwR6dr-71" value="" style="endArrow=none;dashed=1;html=1;dashPattern=1 3;strokeWidth=2;exitX=1;exitY=0.5;exitDx=0;exitDy=0;entryX=0;entryY=0.5;entryDx=0;entryDy=0;strokeColor=#ffc86c;" edge="1" parent="1" source="Cu7uc8yZki1-YXtwR6dr-28" target="Cu7uc8yZki1-YXtwR6dr-29">
          <mxGeometry width="50" height="50" relative="1" as="geometry">
            <mxPoint x="590" y="-265" as="sourcePoint" />
            <mxPoint x="640" y="-315" as="targetPoint" />
          </mxGeometry>
        </mxCell>
        <mxCell id="Cu7uc8yZki1-YXtwR6dr-72" value="" style="endArrow=classic;html=1;strokeColor=#ffae11;exitX=0;exitY=0.5;exitDx=0;exitDy=0;entryX=1;entryY=0.5;entryDx=0;entryDy=0;" edge="1" parent="1" source="Cu7uc8yZki1-YXtwR6dr-34" target="Cu7uc8yZki1-YXtwR6dr-36">
          <mxGeometry width="50" height="50" relative="1" as="geometry">
            <mxPoint x="320" y="-5" as="sourcePoint" />
            <mxPoint x="370" y="-55" as="targetPoint" />
          </mxGeometry>
        </mxCell>
        <mxCell id="Cu7uc8yZki1-YXtwR6dr-73" value="客户端" style="text;html=1;strokeColor=none;fillColor=none;align=center;verticalAlign=middle;whiteSpace=wrap;rounded=0;fontSize=15;fontStyle=1" vertex="1" parent="1">
          <mxGeometry x="160.5" y="-1144" width="93" height="20" as="geometry" />
        </mxCell>
        <mxCell id="Cu7uc8yZki1-YXtwR6dr-75" value="构建系统" style="text;html=1;strokeColor=none;fillColor=none;align=center;verticalAlign=middle;whiteSpace=wrap;rounded=0;fontSize=15;fontStyle=1" vertex="1" parent="1">
          <mxGeometry x="459.75" y="-1144" width="93" height="20" as="geometry" />
        </mxCell>
      </root>
    </mxGraphModel>
  </diagram>
</mxfile>
